# xmcd
#
# Track frame offsets:
#	150
#	47524
#	97573
#	124435
#	181555
#	221388
#	254306
#	285178
#
# Disc length: 4415 seconds
#
# Revision: 3
# Processed by: cddbd v1.5.2PL0 Copyright (c) Steve Scherf et al.
# Submitted via: audiograbber 1.83.01
#
DISCID=5c113d08
DTITLE=Kamasi Washington - Heaven And Earth [2CD] [CD 2: Heaven)
DYEAR=2018
DGENRE=Jazz
TTITLE0=The Space Travelers Lullaby
TTITLE1=Vi Lua Vi Sol
TTITLE2=Street Fighter Mas
TTITLE3=Song For The Fallen
TTITLE4=Journey
TTITLE5=The Psalmnist
TTITLE6=Show Us The Way
TTITLE7=Will You Sing
EXTD=YEAR: 2018\n\nMARO\n
EXTT0=
EXTT1=
EXTT2=
EXTT3=
EXTT4=
EXTT5=
EXTT6=
EXTT7=
PLAYORDER=
